<?xml version="1.0" encoding="utf-8"?>
<!-- Generator: Adobe Illustrator 19.0.0, SVG Export Plug-In . SVG Version: 6.00 Build 0)  -->
<svg version="1.1" id="Layer_1" xmlns="http://www.w3.org/2000/svg" xmlns:xlink="http://www.w3.org/1999/xlink" x="0px" y="0px"
	 viewBox="0 0 399.7 294" style="enable-background:new 0 0 399.7 294;" xml:space="preserve">
<style type="text/css">
	.st0{fill:#FFFFFF;}
	.st1{fill:#5DA7DB;stroke:#5DA7DB;stroke-miterlimit:10;}
	.st2{fill:none;stroke:#5DA7DB;stroke-width:11;stroke-miterlimit:10;}
</style>
<path id="XMLID_95_" class="st0" d="M303.8,0.5H95.9c-30.7,0-55.8,31.4-55.8,69.7v112.7c0,38.3,25.1,69.7,55.8,69.7h177.7l44.3,40
	l0-42.3l0,0c23.9-7.8,41.7-35.2,41.7-67.4V70.2C359.6,31.9,334.5,0.5,303.8,0.5z"/>
<g id="XMLID_106_">
	<circle id="XMLID_6_" class="st1" cx="91.2" cy="190.6" r="9.2"/>
	<circle id="XMLID_25_" class="st1" cx="134.7" cy="134" r="9.2"/>
	<circle id="XMLID_26_" class="st1" cx="178.1" cy="147.8" r="9.2"/>
	<circle id="XMLID_27_" class="st1" cx="221.6" cy="95.1" r="9.2"/>
	<circle id="XMLID_29_" class="st1" cx="265" cy="121.5" r="9.2"/>
	<circle id="XMLID_30_" class="st1" cx="308.4" cy="62.5" r="9.2"/>
	<line id="XMLID_88_" class="st2" x1="91.2" y1="190.6" x2="134.7" y2="134"/>
	<line id="XMLID_89_" class="st2" x1="134.7" y1="134" x2="178.1" y2="147.8"/>
	<line id="XMLID_90_" class="st2" x1="178.1" y1="147.8" x2="221.6" y2="95.1"/>
	<line id="XMLID_91_" class="st2" x1="221.6" y1="95.1" x2="265" y2="121.5"/>
	<line id="XMLID_92_" class="st2" x1="265" y1="121.5" x2="308.4" y2="62.5"/>
</g>
</svg>
